<svg width="156" height="168" viewBox="0 0 156 168" fill="none" xmlns="http://www.w3.org/2000/svg">
<path d="M92.7411 13.3366C95.8397 9.11607 100.081 7.46559 104.612 7.557C109.193 7.64945 114.097 9.53125 118.325 12.4585C122.551 15.3844 126.006 19.2883 127.744 23.3026C129.478 27.3043 129.475 31.3133 127.017 34.6617L119.383 45.0597C114.974 39.1056 111.019 34.5409 105.947 30.9724C100.824 27.3684 94.623 24.8254 85.7816 22.816L92.7411 13.3366Z" fill="#FF7A30" stroke="black" stroke-width="2"/>
<path d="M77.7924 35.4568C82.1216 36.3223 86.2061 38.253 90.9974 40.8656L35.1773 116.897C30.1891 114.279 25.9344 112.432 21.7168 111.836L77.7924 35.4568Z" fill="#E2B61A" stroke="black" stroke-width="2"/>
<path d="M91.5175 41.3016C95.5831 43.6374 97.9795 45.3878 101.342 47.9621L45.5435 123.589C42.2021 121.111 39.9458 119.518 35.8615 117.11L91.5175 41.3016Z" fill="#E2B61A" stroke="black" stroke-width="2"/>
<path d="M102.25 47.8766C107.012 51.6655 109.697 54.2034 111.691 57.2962L55.5102 133.819C53.4863 130.506 50.8214 127.718 46.4191 123.922L102.25 47.8766Z" fill="#E2B61A" stroke="black" stroke-width="2"/>
<path d="M79.7521 32.4919C84.4625 32.9583 91.2754 35.502 97.7284 39.4876C104.259 43.5211 110.243 48.9227 113.244 54.8852L110.829 58.1741C106.123 51.5323 101.814 46.851 96.5974 43.3883C91.3846 39.9285 85.3326 37.731 77.215 35.9477L79.7521 32.4919Z" fill="#CDCDCD" stroke="black" stroke-width="2"/>
<path d="M83.1829 27.8187C85.5031 28.0256 88.4271 28.8779 91.6302 30.228C95.0782 31.6813 98.7764 33.6785 102.274 35.9543C105.772 38.2304 109.05 40.7712 111.666 43.3049C114.109 45.6711 115.916 47.976 116.825 50.0065L114.332 53.4033C110.059 47.4577 106.088 43.0891 101.005 39.5836C95.8603 36.0356 89.6361 33.4129 80.9324 30.884L83.1829 27.8187Z" fill="#CDCDCD" stroke="black" stroke-width="2"/>
<path d="M86.2157 23.6879C88.5046 23.9408 91.3996 24.8283 94.5779 26.2C98.0092 27.6809 101.699 29.6933 105.198 31.9715C108.698 34.25 111.987 36.7815 114.624 39.2916C117.079 41.6287 118.911 43.8947 119.857 45.8773L117.533 49.0426C113.185 43.1921 109.173 38.8798 104.089 35.3806C98.9447 31.8397 92.7568 29.1706 84.1236 26.5375L86.2157 23.6879Z" fill="#CDCDCD" stroke="black" stroke-width="2"/>
<path d="M18.9536 150.748C17.0888 149.523 16.0584 146.764 15.7659 142.878C15.479 139.066 15.9246 134.484 16.6628 130.032C17.3993 125.591 18.4184 121.328 19.2552 118.172C19.6733 116.595 20.0453 115.296 20.3122 114.393C20.4369 113.971 20.5392 113.636 20.6121 113.399C22.6408 112.505 25.5095 112.33 28.8417 112.902C32.3583 113.507 36.254 114.922 39.933 117.001C47.1637 121.088 53.3215 127.598 54.3285 135.251C54.134 135.399 53.8777 135.594 53.5658 135.828C52.7899 136.409 51.6694 137.234 50.2968 138.206C47.5492 140.151 43.7984 142.679 39.7721 145.017C35.7358 147.362 31.4694 149.489 27.6834 150.664C23.8232 151.862 20.803 151.963 18.9536 150.748Z" fill="#E7C89F" stroke="black" stroke-width="2"/>
<path d="M18.9161 150.464C17.9932 149.857 17.3124 148.764 16.8536 147.304C16.3991 145.858 16.1987 144.168 16.1428 142.527C16.0871 140.892 16.1757 139.345 16.2791 138.204C16.3276 137.669 16.3797 137.225 16.4205 136.907C16.6324 136.862 16.9087 136.835 17.2626 136.847C17.8988 136.868 18.6859 137.008 19.5871 137.269C21.387 137.79 23.5142 138.755 25.5807 140C27.6457 141.245 29.6072 142.743 31.0924 144.308C32.3525 145.635 33.2036 146.942 33.5508 148.126C33.2535 148.261 32.8711 148.429 32.422 148.618C31.2803 149.097 29.7157 149.701 28.0128 150.207C26.3029 150.716 24.4928 151.115 22.8505 151.207C21.1895 151.299 19.8385 151.069 18.9161 150.464Z" fill="#65656F" stroke="black" stroke-width="2"/>
</svg>
